# xmcd
#
# Track frame offsets: 
#        150
#        13510
#        29045
#        42638
#        56524
#        74927
#        87024
#        101217
#        123418
#        137261
#        145029
#
# Disc length: 2059 seconds
#
# Revision: 1
# Processed by: cddbd v1.5.2PL0 Copyright (c) Steve Scherf et al.
# Submitted via: ExactAudioCopy v0.95b4
#
DISCID=9f08090b
DTITLE=Bellwether - The Stinging Nettles
DYEAR=2006
DGENRE=Rock
TTITLE0=There Were Days
TTITLE1=Nothing's Wrong
TTITLE2=Poor You
TTITLE3=A Little Rain
TTITLE4=Please Don't Be Mean
TTITLE5=Talkn' Funplex Blues
TTITLE6=Jamestown
TTITLE7=Angeline
TTITLE8=Maybe Unsure
TTITLE9=Sweethearts
TTITLE10=Come Out Walking
EXTD=
EXTT0=
EXTT1=
EXTT2=
EXTT3=
EXTT4=
EXTT5=
EXTT6=
EXTT7=
EXTT8=
EXTT9=
EXTT10=
PLAYORDER=
